<svg xmlns="http://www.w3.org/2000/svg" xmlns:xlink="http://www.w3.org/1999/xlink" width="390" height="844" viewBox="0 0 390 844">
  <defs><linearGradient id="mBg" x1="0" y1="0" x2="1" y2="1"><stop stop-color="#090c18"/><stop offset=".58" stop-color="#1c1830"/><stop offset="1" stop-color="#2c1b2f"/></linearGradient><linearGradient id="mFade" x1="0" y1="0" x2="0" y2="1"><stop stop-color="#0b0d18" stop-opacity="0"/><stop offset=".72" stop-color="#0b0d18" stop-opacity=".32"/><stop offset="1" stop-color="#0b0d18" stop-opacity=".95"/></linearGradient><radialGradient id="mGlow" cx="70%" cy="10%" r="80%"><stop stop-color="#8c78ff" stop-opacity=".34"/><stop offset="1" stop-color="#8c78ff" stop-opacity="0"/></radialGradient><filter id="mBlur"><feGaussianBlur stdDeviation="26"/></filter><clipPath id="mHero"><rect x="16" y="51" width="358" height="288" rx="24"/></clipPath></defs>
  <rect width="390" height="844" fill="url(#mBg)"/><rect width="390" height="844" fill="url(#mGlow)"/><circle cx="325" cy="108" r="110" fill="#ff6f5b" opacity=".13" filter="url(#mBlur)"/><g font-family="Arial,'Microsoft YaHei',sans-serif"><text x="16" y="26" font-size="11" letter-spacing="2.2" fill="#a2a3ba">LUMEN / ORBIT</text><text x="374" y="26" text-anchor="end" font-size="11" letter-spacing="1.3" fill="#8a8ea6">AUG 2026</text></g>
  <g clip-path="url(#mHero)"><image x="-11" y="25" width="412" height="380" xlink:href="furina.webp" preserveAspectRatio="xMidYMid slice"/><rect x="16" y="51" width="358" height="288" fill="url(#mFade)"/></g><rect x="16" y="51" width="358" height="288" rx="24" fill="none" stroke="#ffad9b" stroke-opacity=".45"/>
  <g font-family="Arial,'Microsoft YaHei',sans-serif"><text x="34" y="82" font-size="10" letter-spacing="2" fill="#ffe0d7">FEATURED / 04</text><text x="34" y="273" font-size="54" letter-spacing="-3" fill="#f6f4ef">芙宁娜</text><text x="35" y="299" font-size="13" letter-spacing="2.2" fill="#ffbdad">HYDRO · 枫丹</text><text x="35" y="324" font-size="12" fill="#d8d3df">10月13日 · 生日</text><circle cx="346" cy="83" r="5" fill="#ff8069"/></g>
  <g transform="translate(16 365)" font-family="Arial,'Microsoft YaHei',sans-serif"><text x="0" y="0" font-size="12" letter-spacing="2" fill="#8f91ab">AUGUST / 2026</text><text x="358" y="0" text-anchor="end" font-size="11" fill="#8f91ab">FILTER</text><text x="0" y="37" font-size="30" fill="#f6f4ef">August <tspan fill="#83869f">2026</tspan></text><rect x="269" y="13" width="89" height="30" rx="15" fill="#f2eee9"/><text x="313" y="33" text-anchor="middle" font-size="11" fill="#161524">全部游戏</text>
    <g transform="translate(0 74)" fill="#80839b" font-size="10" letter-spacing="1"><text x="4">M</text><text x="57">T</text><text x="110">W</text><text x="163">T</text><text x="216">F</text><text x="269">S</text><text x="322">S</text></g>
    <g transform="translate(0 104)" stroke="#fff" stroke-opacity=".11" fill="none"><path d="M0 0H358M0 54H358M0 108H358M0 162H358M0 216H358"/><path d="M52 0V216M105 0V216M158 0V216M211 0V216M264 0V216M317 0V216"/></g>
    <g transform="translate(9 130)" font-size="13" fill="#dedce8"><g fill="#6d7189"><text x="0">27</text><text x="53">28</text><text x="106">29</text><text x="159">30</text><text x="212">31</text></g><text x="265">1</text><text x="318">2</text><text x="0" y="54">3</text><text x="53" y="54">4</text><text x="106" y="54">5</text><text x="159" y="54">6</text><text x="212" y="54">7</text><text x="265" y="54" fill="#f6f4ef">8</text><text x="318" y="54">9</text><text x="0" y="108">10</text><text x="53" y="108">11</text><text x="106" y="108">12</text><text x="159" y="108">13</text><text x="212" y="108">14</text><text x="265" y="108">15</text><text x="318" y="108">16</text><text x="0" y="162">17</text><text x="53" y="162">18</text><text x="106" y="162">19</text><text x="159" y="162">20</text><text x="212" y="162">21</text><text x="265" y="162" fill="#f6f4ef">22</text><text x="318" y="162">23</text><text x="0" y="216">24</text><text x="53" y="216">25</text><text x="106" y="216">26</text><text x="159" y="216">27</text><text x="212" y="216">28</text><text x="265" y="216">29</text><text x="318" y="216">30</text></g>
    <g fill="#ff8069"><circle cx="286" cy="179" r="4"/><circle cx="339" cy="233" r="4"/></g><g fill="#88f0d5"><circle cx="180" cy="287" r="4"/></g><rect x="211" y="165" width="91" height="38" rx="19" fill="#f2eee9"/><text x="256" y="189" text-anchor="middle" font-size="10" fill="#161524">22 · 阿蕾奇诺</text>
  </g>
  <g transform="translate(16 720)" font-family="Arial,'Microsoft YaHei',sans-serif"><rect width="358" height="68" rx="22" fill="#111324" fill-opacity=".78" stroke="#fff" stroke-opacity=".12"/><text x="20" y="25" font-size="11" letter-spacing="1.3" fill="#8589a2">NEXT MEMORY</text><text x="20" y="49" font-size="15" fill="#f6f4ef">卡芙卡 · 08.25 <tspan fill="#8f92a9">星穹铁道</tspan></text><circle cx="328" cy="34" r="17" fill="#23243b" stroke="#ff8069"/><text x="328" y="39" text-anchor="middle" font-size="16" fill="#ffb9aa">→</text></g><text x="16" y="823" font-family="Arial,'Microsoft YaHei',sans-serif" font-size="9" letter-spacing="1.5" fill="#70748e">LUMEN / MEMORY INDEX</text>
</svg>
